<svg width="61" height="62" viewBox="0 0 61 62" fill="none" xmlns="http://www.w3.org/2000/svg">
<g clip-path="url(#clip0_4_1100)">
<path opacity="0.5" d="M29.9448 9.0284V26.2737L44.909 17.6332V0.387695L29.9448 9.0284Z" fill="#13A049"/>
<path opacity="0.5" d="M29.9449 9.0284L14.981 0.387695V17.6691L29.9449 26.3098V9.0284Z" fill="#A2CC39"/>
<path opacity="0.9" d="M44.909 0.387695L29.9449 9.0284L14.981 0.387695L0.0168457 9.0284L29.9449 26.3098L59.8551 9.0284L44.909 0.387695Z" fill="url(#paint0_linear_4_1100)"/>
<path d="M29.9449 26.3097L0.0168457 9.02832V26.3097L14.981 34.9504V52.214L29.9449 60.8547L44.909 52.214V34.9504L59.8551 26.3097V9.02832L29.9449 26.3097Z" fill="url(#paint1_linear_4_1100)"/>
<path d="M29.9448 26.3097V60.8547L44.909 52.214V34.9504L59.855 26.3097V9.02832L29.9448 26.3097Z" fill="url(#paint2_linear_4_1100)"/>
<path opacity="0.05" d="M29.9448 43.5732V60.8546L44.909 52.2139L29.9448 43.5732Z" fill="#231F20"/>
<path opacity="0.1" d="M29.9449 60.8908V43.6094L14.981 52.2501L29.9449 60.8908Z" fill="#231F20"/>
<path opacity="0.05" d="M14.981 17.6689L0.0168457 26.3096L14.981 34.9504L29.9449 26.3096L14.981 17.6689Z" fill="#231F20"/>
<path opacity="0.05" d="M44.909 17.6689L29.9448 26.3096L44.909 34.9504L59.855 26.3096L44.909 17.6689Z" fill="#231F20"/>
</g>
<defs>
<linearGradient id="paint0_linear_4_1100" x1="59.8623" y1="13.3464" x2="0.0168457" y2="13.3464" gradientUnits="userSpaceOnUse">
<stop stop-color="#37BDA6"/>
<stop offset="1" stop-color="#8AD3B8"/>
</linearGradient>
<linearGradient id="paint1_linear_4_1100" x1="59.8623" y1="34.9405" x2="0.0168457" y2="34.9405" gradientUnits="userSpaceOnUse">
<stop offset="0.5" stop-color="#4BB6AD"/>
<stop offset="1" stop-color="#78BBC1"/>
</linearGradient>
<linearGradient id="paint2_linear_4_1100" x1="29.9394" y1="34.9405" x2="59.8619" y2="34.9405" gradientUnits="userSpaceOnUse">
<stop stop-color="#4379A7"/>
<stop offset="1" stop-color="#7CC9B8"/>
</linearGradient>
<clipPath id="clip0_4_1100">
<rect width="60" height="60.7031" fill="white" transform="translate(0.0168457 0.387695)"/>
</clipPath>
</defs>
</svg>
