<svg width="61" height="72" viewBox="0 0 61 72" fill="none" xmlns="http://www.w3.org/2000/svg">
<g clip-path="url(#clip0_4_1111)">
<path d="M18.3893 0.667087C18.0458 0.669299 17.7083 0.757017 17.4072 0.922321C16.4186 1.47029 16.0561 2.74037 16.6038 3.72826L18.8358 7.75857C13.4583 11.0855 9.89505 16.7687 9.89505 23.255V24.4601C8.86216 23.2719 7.34411 22.5216 5.64794 22.5216C2.54013 22.5216 0.0168457 25.0449 0.0168457 28.1525V45.4983C0.0168457 48.6057 2.54036 51.1292 5.64794 51.1292C7.34411 51.1292 8.86216 50.3787 9.89481 49.1905V51.6202C9.89481 54.8961 12.5754 57.5764 15.8512 57.5764H17.3625V65.2927C17.3625 68.4005 19.886 70.9238 22.9936 70.9238C26.1011 70.9238 28.6244 68.4003 28.6244 65.2927V57.5764H31.2391V65.2927C31.2391 68.4005 33.7626 70.9238 36.8702 70.9238C39.9778 70.9238 42.5011 68.4003 42.5011 65.2927V57.5764H44.0125C47.2882 57.5764 49.9687 54.8961 49.9687 51.6202V49.1905C51.0014 50.3787 52.5197 51.1292 54.2158 51.1292C57.3234 51.1292 59.8467 48.6057 59.8467 45.4983V28.1525C59.8467 25.0449 57.3234 22.5216 54.2158 22.5216C52.5197 22.5216 51.0014 23.2719 49.9687 24.4601V23.4589V23.4015C49.9692 23.3405 49.9687 23.2918 49.9687 23.255C49.9687 16.7698 46.3973 11.0923 41.0217 7.76513L43.26 3.72826C43.8075 2.74037 43.4451 1.47029 42.4565 0.922321C42.1555 0.757017 41.818 0.669299 41.4745 0.667087C40.7444 0.660056 40.0279 1.0449 39.6506 1.72576L37.3101 5.95388C35.0217 5.10943 32.5317 4.64654 29.932 4.64654C27.3347 4.64654 24.84 5.10451 22.5534 5.94732L20.2132 1.72576C19.8356 1.0449 19.1193 0.660524 18.3893 0.667087Z" fill="white"/>
<path d="M5.64803 23.9883C3.32912 23.9883 1.48389 25.8335 1.48389 28.1524V45.4983C1.48389 47.8172 3.32912 49.6624 5.64803 49.6624C7.96693 49.6624 9.8124 47.8172 9.8124 45.4983V28.1524C9.8124 25.8335 7.96693 23.9883 5.64803 23.9883ZM54.2162 23.9883C51.897 23.9883 50.0518 25.8335 50.0518 28.1524V45.4983C50.0518 47.8172 51.897 49.6624 54.2162 49.6624C56.5351 49.6624 58.3803 47.8172 58.3803 45.4983V28.1524C58.3803 25.8335 56.5351 23.9883 54.2162 23.9883Z" fill="#A4C639"/>
<path d="M22.994 43.7827C20.6751 43.7827 18.8296 45.628 18.8296 47.9471V65.2927C18.8296 67.6116 20.6751 69.4569 22.994 69.4569C25.3129 69.4569 27.1581 67.6116 27.1581 65.2927V47.9471C27.1581 45.628 25.3129 43.7827 22.994 43.7827ZM36.8706 43.7827C34.5515 43.7827 32.7062 45.628 32.7062 47.9471V65.2927C32.7062 67.6116 34.5515 69.4569 36.8706 69.4569C39.1895 69.4569 41.0347 67.6116 41.0347 65.2927V47.9471C41.0347 45.628 39.1895 43.7827 36.8706 43.7827Z" fill="#A4C639"/>
<path d="M18.4017 2.13387C18.3032 2.13506 18.2067 2.16136 18.1212 2.21028C17.8242 2.37481 17.7267 2.71606 17.8915 3.01371L20.8252 8.31317C15.1814 11.2499 11.3691 16.8306 11.3616 23.2356H48.5018C48.4941 16.8306 44.682 11.2497 39.0382 8.31317L41.9717 3.01395C42.1367 2.71629 42.0389 2.37481 41.742 2.21028C41.6565 2.16133 41.5599 2.13503 41.4614 2.13387C41.2505 2.13153 41.051 2.237 40.9385 2.43996L37.9667 7.7966C35.5357 6.71848 32.809 6.11309 29.9316 6.11309C27.0542 6.11309 24.3277 6.71825 21.8965 7.7966L18.9246 2.43996C18.8739 2.34594 18.7984 2.26765 18.7062 2.21367C18.614 2.15968 18.5088 2.13208 18.402 2.13387H18.4017ZM11.3616 24.7023V51.6203C11.3603 52.2102 11.4756 52.7945 11.7007 53.3398C11.9259 53.885 12.2566 54.3804 12.6737 54.7975C13.0908 55.2147 13.5863 55.5453 14.1315 55.7704C14.6768 55.9956 15.2611 56.1108 15.851 56.1095H44.0124C44.6023 56.1108 45.1867 55.9955 45.7319 55.7704C46.2772 55.5452 46.7726 55.2146 47.1898 54.7974C47.6069 54.3803 47.9376 53.8849 48.1627 53.3396C48.3879 52.7943 48.5031 52.21 48.5018 51.62V24.7025H11.3616V24.7023Z" fill="#A4C639"/>
<path d="M21.361 13.3384C20.5132 13.3384 19.8113 14.0401 19.8113 14.8878C19.8113 15.7358 20.5132 16.4375 21.361 16.4375C22.2089 16.4375 22.9107 15.7358 22.9107 14.8878C22.9107 14.0401 22.2089 13.3384 21.361 13.3384ZM38.5027 13.3384C37.6547 13.3384 36.953 14.0401 36.953 14.8878C36.953 15.7358 37.6547 16.4375 38.5027 16.4375C39.3504 16.4375 40.0524 15.7358 40.0524 14.8878C40.0524 14.0401 39.3504 13.3384 38.5027 13.3384Z" fill="white"/>
</g>
<defs>
<clipPath id="clip0_4_1111">
<rect width="60" height="70.5469" fill="white" transform="translate(0.0168457 0.46582)"/>
</clipPath>
</defs>
</svg>
