<svg width="150" height="61" viewBox="0 0 150 61" fill="none" xmlns="http://www.w3.org/2000/svg">
<g clip-path="url(#clip0_4_1130)">
<path d="M0.129395 0.739258V4.84033H29.2982V0.739258H0.129395ZM33.4309 0.739258V4.84033H74.9977C74.9977 4.84033 70.7517 0.739258 65.1284 0.739258H33.4309ZM83.1518 0.739258V4.84033H108.299L106.806 0.739258H83.1518ZM126.328 0.739258L124.836 4.84033H149.755V0.739258H126.328ZM0.129395 8.71487V12.8159H29.2982V8.71487H0.129395ZM33.4309 8.72072V12.8159H79.8211C79.8211 12.8159 79.2793 9.65965 78.3343 8.72072H33.4309ZM83.1518 8.72072V12.8159H111.056L109.675 8.72072H83.1518ZM123.343 8.72072L121.962 12.8159H149.755V8.72072H123.343ZM8.51183 16.6905V20.7968H21.144V16.6905H8.51183ZM41.8133 16.6905V20.7968H54.4455V16.6905H41.8133ZM66.7323 16.6905V20.7968H79.3645C79.3645 20.7968 80.1665 18.628 80.1665 16.6902H66.7323V16.6905ZM91.5343 16.6905V20.7968H113.93L112.438 16.6902H91.5343V16.6905ZM120.592 16.6905L119.093 20.7971H141.601V16.6905H120.592ZM8.51183 24.6719V28.7724H21.144V24.6719H8.51183ZM41.8133 24.6719V28.7724H74.0787C74.0787 28.7724 76.7778 26.668 77.6377 24.6714H41.8133V24.6719ZM91.5343 24.6719V28.7724H104.166V26.4895L104.968 28.7724H128.108L128.968 26.4895V28.7724H141.601V24.6719H117.887L116.629 28.1458L115.365 24.6719H91.5343ZM8.51183 32.647V36.748H21.144V32.647H8.51183ZM41.8133 32.647V36.748H77.6377C76.7775 34.7578 74.0787 32.647 74.0787 32.647H41.8133ZM91.5343 32.647V36.748H104.166V32.647H91.5343ZM106.461 32.647L107.989 36.748H125.339L126.791 32.647H106.461ZM128.968 32.647V36.748H141.601V32.647H128.968ZM8.51183 40.6226V44.7236H21.144V40.6226H8.51183ZM41.8133 40.6226V44.7236H54.4455V40.6226H41.8133ZM66.7323 40.6226V44.7236H80.1665C80.1665 42.7881 79.3645 40.6226 79.3645 40.6226H66.7323ZM91.5343 40.6226V44.7236H104.166V40.6226H91.5343ZM109.329 40.6226L110.81 44.7236H122.442L123.934 40.6226H109.329ZM128.968 40.6226V44.7236H141.601V40.6226H128.968ZM0.357687 48.5985V52.7051H29.5265V48.5982H0.357687V48.5985ZM33.4309 48.5985V52.7051H78.3343C79.2793 51.7647 79.8211 48.5982 79.8211 48.5982H33.4309V48.5985ZM83.3801 48.5985V52.7051H104.166V48.5982H83.3801V48.5985ZM112.204 48.5985L113.725 52.7051H119.644L121.072 48.5982H112.204V48.5985ZM128.968 48.5985V52.7051H149.983V48.5982H128.968V48.5985ZM0.357687 56.5796V60.6807H29.5265V56.5796H0.357687ZM33.4309 56.5796V60.6746H65.1284C70.7517 60.6746 74.9977 56.5794 74.9977 56.5794H33.4309V56.5796ZM83.3801 56.5796V60.6807H104.166V56.5796H83.3801ZM115.089 56.5796L116.553 60.6687L116.805 60.6746L118.291 56.5794H115.089V56.5796ZM128.968 56.5796V60.6807H149.983V56.5796H128.968Z" fill="#1F70C1"/>
</g>
<defs>
<clipPath id="clip0_4_1130">
<rect width="149.854" height="60" fill="white" transform="translate(0.129395 0.739258)"/>
</clipPath>
</defs>
</svg>
