<svg width="61" height="61" viewBox="0 0 61 61" fill="none" xmlns="http://www.w3.org/2000/svg">
<g clip-path="url(#clip0_4_1096)">
<path d="M13.1568 0.739258H46.8768C54.134 0.739258 60.0168 6.62207 60.0168 13.8793V47.5993C60.0168 54.8564 54.134 60.7393 46.8768 60.7393H13.1568C5.89966 60.7393 0.0168457 54.8564 0.0168457 47.5993V13.8793C0.0168457 6.62207 5.89966 0.739258 13.1568 0.739258Z" fill="url(#paint0_linear_4_1096)"/>
<path d="M19.6856 44.3449L19.6912 44.3468L17.6397 47.8999C16.8909 49.1969 15.2325 49.6413 13.9354 48.8925C12.6386 48.1436 12.194 46.4852 12.9429 45.1882L14.4541 42.5707L14.5992 42.3194C14.8582 41.9472 15.4973 41.3046 16.7758 41.4255C16.7758 41.4255 19.7845 41.752 20.0022 43.3157C20.0022 43.3157 20.0318 43.8302 19.6856 44.3449ZM48.7816 35.2699H42.3846C41.9489 35.2406 41.7588 35.085 41.6838 34.9945L41.6791 34.9863L34.8314 23.1255L34.8225 23.1314L34.4119 22.5426C33.7387 21.5132 32.67 24.1457 32.67 24.1457C31.3938 27.0792 32.8512 30.4141 33.359 31.4221L42.8705 47.8964C43.619 49.1932 45.2775 49.6378 46.5747 48.8887C47.8715 48.1399 48.3162 46.4814 47.5671 45.1844L45.1889 41.065C45.1427 40.9652 45.0626 40.6943 45.5503 40.6931H48.7816C50.2793 40.6931 51.4933 39.479 51.4933 37.9814C51.4933 36.4837 50.2793 35.2696 48.7816 35.2696V35.2699ZM36.3565 38.9561C36.3565 38.9561 36.6979 40.6931 35.3768 40.6931H11.7286C10.2309 40.6931 9.01685 39.479 9.01685 37.9814C9.01685 36.4837 10.2309 35.2696 11.7286 35.2696H17.8083C18.7898 35.2129 19.0223 34.6462 19.0223 34.6462L19.0279 34.649L26.9639 20.9034L26.9615 20.9029C27.1061 20.6374 26.9857 20.3864 26.9648 20.3468L24.3438 15.8071C23.595 14.5103 24.0394 12.8517 25.3364 12.1031C26.6334 11.3542 28.2919 11.7984 29.0407 13.0954L30.2562 15.2008L31.4695 13.0992C32.2183 11.8024 33.8768 11.3578 35.1738 12.1068C36.4708 12.8557 36.9152 14.5139 36.1664 15.8109L25.1231 34.9382C25.0748 35.0547 25.0601 35.2375 25.4193 35.2696H32.0203L32.0217 35.3341C32.0217 35.3341 35.8369 35.3934 36.3565 38.9561Z" fill="white"/>
</g>
<defs>
<linearGradient id="paint0_linear_4_1096" x1="30.0168" y1="0.739258" x2="30.0168" y2="60.7393" gradientUnits="userSpaceOnUse">
<stop stop-color="#17C9FB"/>
<stop offset="1" stop-color="#1A74E8"/>
</linearGradient>
<clipPath id="clip0_4_1096">
<rect width="60" height="60" fill="white" transform="translate(0.0168457 0.739258)"/>
</clipPath>
</defs>
</svg>
