<svg width="73" height="61" viewBox="0 0 73 61" fill="none" xmlns="http://www.w3.org/2000/svg">
<g clip-path="url(#clip0_4_1118)">
<path d="M36.1578 0.739258C16.8226 0.739258 1.67445 25.3393 0.241211 46.1167C6.30882 56.6471 20.9406 60.6055 36.1584 60.6055C51.375 60.6055 66.0077 56.6471 72.0722 46.1164C70.6387 25.3393 55.4925 0.739258 36.1581 0.739258" fill="#B6DEFF"/>
<path d="M67.0195 41.1675C67.0195 41.1675 62.7491 31.9348 58.4085 26.5483C54.0649 21.1596 48.7604 15.292 45.624 15.292C42.4894 15.292 33.7266 30.8069 29.7066 30.8069C25.6857 30.8069 23.5961 23.7737 18.6528 23.7737C13.7074 23.7737 5.85051 40.734 5.85051 40.734L5.31812 43.6092C5.31812 43.6092 8.04769 55.7109 36.6037 55.7109C65.1609 55.7109 67.4432 43.8078 67.4432 43.8078L67.0198 41.1672" fill="#66CC66"/>
<path d="M30.1543 37.4278C25.7194 37.4278 23.4458 33.0521 22.2132 30.3509C21.1047 27.9177 20.9129 24.076 17.7678 23.9684C18.0768 23.8459 18.3743 23.7735 18.6532 23.7735C23.5966 23.7735 25.6861 30.8067 29.707 30.8067C33.727 30.8067 42.4898 15.2915 45.6244 15.2915C46.2151 15.2915 46.8805 15.5 47.6025 15.8707C47.0684 15.8002 46.3836 15.8493 45.856 16.3785C44.8427 17.3921 35.6447 37.4278 30.1543 37.4278Z" fill="#17AD49"/>
</g>
<defs>
<clipPath id="clip0_4_1118">
<rect width="72.1127" height="60" fill="white" transform="translate(0.0168457 0.739258)"/>
</clipPath>
</defs>
</svg>
