<svg width="61" height="66" viewBox="0 0 61 66" fill="none" xmlns="http://www.w3.org/2000/svg">
<g clip-path="url(#clip0_4_1123)">
<path d="M55.9198 52.69C55.4675 56.0518 53.205 58.9609 50.0377 60.2537C48.4861 60.8994 46.8057 61.0939 45.1247 60.8994C43.5089 60.7058 41.8927 60.1885 40.2122 59.2199C37.8849 57.9257 35.5578 55.9227 32.843 52.9489C37.1096 47.713 39.6945 42.9294 40.6646 38.6638C41.1172 36.6596 41.1816 34.8496 40.988 33.1686C40.7297 31.5528 40.1478 30.0655 39.2424 28.7729C37.2385 25.8643 33.8775 24.1834 30.1282 24.1834C26.379 24.1834 23.0178 25.929 21.0139 28.7729C20.1085 30.0657 19.5275 31.5528 19.2685 33.1686C19.0102 34.8496 19.0747 36.7241 19.5919 38.664C20.5613 42.9292 23.2114 47.7777 27.4135 53.0127C24.7632 55.9871 22.3714 57.9908 20.044 59.2839C18.3636 60.2537 16.7473 60.771 15.1315 60.9641C13.4658 61.1501 11.7799 60.9286 10.2188 60.3184C7.05122 59.0256 4.78926 56.1156 4.33645 52.7544C4.14286 51.1389 4.272 49.5231 4.9184 47.713C5.112 47.0661 5.43567 46.4209 5.7584 45.6446C6.21122 44.6108 6.72848 43.5111 7.24505 42.4119L7.3102 42.2835C11.7699 32.6514 16.5537 22.8261 21.5311 13.2596L21.725 12.8711C22.2422 11.9024 22.7588 10.8686 23.2765 9.89848C23.7933 8.86395 24.375 7.8941 25.0859 7.05316C26.4434 5.5016 28.2535 4.66137 30.2574 4.66137C32.2613 4.66137 34.0711 5.5016 35.4286 7.0534C36.1397 7.8941 36.7215 8.86395 37.2387 9.89871C37.756 10.8686 38.2725 11.9024 38.7898 12.8711L38.9843 13.2596C43.8966 22.8906 48.6804 32.7158 53.1406 42.3479V42.4119C53.6579 43.4464 54.11 44.6108 54.6272 45.6446C54.9507 46.4209 55.2736 47.0659 55.4672 47.713C55.9845 49.3935 56.1783 51.0102 55.92 52.69H55.9198ZM30.1282 49.6515C26.6379 45.2565 24.375 41.1191 23.5995 37.6295C23.2768 36.1424 23.2114 34.8496 23.4059 33.6859C23.5348 32.6514 23.9232 31.746 24.4395 30.9697C25.6679 29.226 27.7362 28.1251 30.1282 28.1251C32.52 28.1251 34.6531 29.1603 35.8165 30.9697C36.3333 31.746 36.7214 32.6514 36.8506 33.6859C37.0444 34.8496 36.9797 36.2068 36.6568 37.6295C35.8812 41.0551 33.6186 45.1921 30.1282 49.6515ZM59.2812 46.2906C58.9582 45.5148 58.6348 44.6748 58.3118 43.9637C57.7946 42.8007 57.2773 41.701 56.8247 40.6665L56.76 40.6025C52.3004 30.9057 47.5165 21.0805 42.4744 11.3858L42.2808 10.9968C41.7636 10.0271 41.2463 8.99262 40.7297 7.95855C40.0829 6.79441 39.4362 5.56746 38.4024 4.40309C36.3331 1.81746 33.3603 0.395508 30.1925 0.395508C26.9604 0.395508 24.0518 1.81746 21.9183 4.27441C20.9492 5.43762 20.2381 6.66574 19.5917 7.83012C19.0744 8.86395 18.5572 9.89848 18.0401 10.8686L17.8463 11.2553C12.8693 20.9514 8.02106 30.7773 3.56067 40.4734L3.49622 40.6025C3.0434 41.6364 2.52614 42.7349 2.00887 43.8993C1.66306 44.6654 1.33988 45.4415 1.03973 46.2266C0.19903 48.6177 -0.0592515 50.8806 0.263717 53.2072C0.97528 58.0555 4.20731 62.1285 8.66747 63.9379C10.3477 64.6494 12.0931 64.9724 13.9034 64.9724C14.4204 64.9724 15.0668 64.9077 15.5841 64.8425C17.7169 64.5835 19.9147 63.8739 22.0475 62.645C24.6982 61.1584 27.2194 59.0256 30.0633 55.9227C32.9072 59.0256 35.4931 61.1586 38.0787 62.645C40.2122 63.8739 42.4097 64.5835 44.5428 64.8425C45.06 64.9077 45.7065 64.9724 46.2235 64.9724C48.0336 64.9724 49.8432 64.6494 51.4594 63.9379C55.9843 62.1285 59.1516 57.9911 59.8627 53.2072C60.38 50.9443 60.121 48.6831 59.281 46.2903L59.2812 46.2906Z" fill="#E0565B"/>
</g>
<defs>
<clipPath id="clip0_4_1123">
<rect width="60" height="64.6875" fill="white" transform="translate(0.129395 0.395508)"/>
</clipPath>
</defs>
</svg>
