<svg width="65" height="66" viewBox="0 0 65 66" fill="none" xmlns="http://www.w3.org/2000/svg">
<rect x="0.5" y="0.685059" width="64" height="64" rx="32" fill="white"/>
<rect x="0.5" y="0.685059" width="64" height="64" rx="32" stroke="url(#paint0_linear_4_1208)"/>
<path d="M44.1071 23.0132H20.8929C20.399 23.0132 20 23.4194 20 23.9223V42.1041C20 42.6069 20.399 43.0132 20.8929 43.0132H44.1071C44.601 43.0132 45 42.6069 45 42.1041V23.9223C45 23.4194 44.601 23.0132 44.1071 23.0132ZM42.9911 26.1609V40.9677H22.0089V26.1609L21.2388 25.5501L22.3354 24.1155L23.5296 25.0615H41.4732L42.6674 24.1155L43.764 25.5501L42.9911 26.1609ZM41.4732 25.0586L32.5 32.1609L23.5268 25.0586L22.3326 24.1126L21.236 25.5473L22.0061 26.1581L31.5374 33.7035C31.8115 33.9203 32.1487 34.038 32.4958 34.038C32.8429 34.038 33.1801 33.9203 33.4542 33.7035L42.9911 26.1609L43.7612 25.5501L42.6646 24.1155L41.4732 25.0586Z" fill="#2091F9"/>
<defs>
<linearGradient id="paint0_linear_4_1208" x1="1.12926" y1="65.1851" x2="47.3054" y2="10.0944" gradientUnits="userSpaceOnUse">
<stop stop-color="#00F3B9"/>
<stop offset="1" stop-color="#2187FF"/>
</linearGradient>
</defs>
</svg>
