<svg width="33" height="33" viewBox="0 0 33 33" fill="none" xmlns="http://www.w3.org/2000/svg">
<path d="M31.2104 0.462402H1.75129C1.04283 0.462402 0.470459 1.03477 0.470459 1.74323V31.2023C0.470459 31.9108 1.04283 32.4832 1.75129 32.4832H31.2104C31.9189 32.4832 32.4912 31.9108 32.4912 31.2023V1.74323C32.4912 1.03477 31.9189 0.462402 31.2104 0.462402ZM27.512 9.80847H24.9543C22.949 9.80847 22.5608 10.7611 22.5608 12.162V15.248H27.3479L26.7235 20.0791H22.5608V32.4832H17.5696V20.0831H13.3948V15.248H17.5696V11.6857C17.5696 7.551 20.0952 5.29754 23.7856 5.29754C25.5547 5.29754 27.0717 5.42963 27.516 5.48966V9.80847H27.512Z" fill="#2091F9"/>
</svg>
