<svg width="33" height="33" viewBox="0 0 33 33" fill="none" xmlns="http://www.w3.org/2000/svg">
<path d="M31.198 0.462402H1.73884C1.03038 0.462402 0.458008 1.03477 0.458008 1.74323V31.2023C0.458008 31.9108 1.03038 32.4832 1.73884 32.4832H31.198C31.9064 32.4832 32.4788 31.9108 32.4788 31.2023V1.74323C32.4788 1.03477 31.9064 0.462402 31.198 0.462402ZM9.95617 27.7481H5.20509V12.4662H9.95617V27.7481ZM7.58263 10.3768C7.03798 10.3768 6.50557 10.2153 6.05271 9.91274C5.59985 9.61015 5.24689 9.18007 5.03846 8.67688C4.83004 8.17369 4.7755 7.61999 4.88176 7.08581C4.98801 6.55163 5.25029 6.06095 5.63541 5.67583C6.02053 5.2907 6.51121 5.02843 7.04539 4.92217C7.57958 4.81592 8.13327 4.87045 8.63646 5.07888C9.13965 5.28731 9.56973 5.64027 9.87232 6.09313C10.1749 6.54598 10.3364 7.0784 10.3364 7.62305C10.3324 9.14404 9.09962 10.3768 7.58263 10.3768ZM27.7437 27.7481H22.9966V20.3153C22.9966 18.5421 22.9646 16.2647 20.527 16.2647C18.0574 16.2647 17.6772 18.1939 17.6772 20.1872V27.7481H12.9341V12.4662H17.4891V14.5555H17.5531C18.1855 13.3548 19.7345 12.0859 22.048 12.0859C26.8591 12.0859 27.7437 15.252 27.7437 19.3667V27.7481Z" fill="#2091F9"/>
</svg>
