<svg width="66" height="66" viewBox="0 0 66 66" fill="none" xmlns="http://www.w3.org/2000/svg">
<rect x="1" y="0.685059" width="64" height="64" rx="32" fill="white"/>
<rect x="1" y="0.685059" width="64" height="64" rx="32" stroke="url(#paint0_linear_4_1194)"/>
<g clip-path="url(#clip0_4_1194)">
<path d="M32.9998 36.1798C36.4927 36.1798 39.3332 33.3393 39.3332 29.8465C39.3332 26.3537 36.4927 23.5132 32.9998 23.5132C29.507 23.5132 26.6665 26.3537 26.6665 29.8465C26.6665 33.3393 29.507 36.1798 32.9998 36.1798ZM32.9998 26.6799C34.7463 26.6799 36.1665 28.1001 36.1665 29.8465C36.1665 31.5929 34.7463 33.0132 32.9998 33.0132C31.2534 33.0132 29.8332 31.5929 29.8332 29.8465C29.8332 28.1001 31.2534 26.6799 32.9998 26.6799Z" fill="#2091F9"/>
<path d="M31.7485 48.5519C32.0164 48.7432 32.3375 48.8461 32.6668 48.8461C32.9961 48.8461 33.3172 48.7432 33.5851 48.5519C34.0665 48.2114 45.3794 40.043 45.3335 29.8464C45.3335 22.8623 39.6509 17.1797 32.6668 17.1797C25.6827 17.1797 20.0001 22.8623 20.0001 29.8384C19.9542 40.043 31.2671 48.2114 31.7485 48.5519ZM32.6668 20.3464C37.9061 20.3464 42.1668 24.6071 42.1668 29.8543C42.2001 36.8811 35.2191 43.1907 32.6668 45.2601C30.1161 43.1891 23.1336 36.8779 23.1668 29.8464C23.1668 24.6071 27.4276 20.3464 32.6668 20.3464Z" fill="#2091F9"/>
</g>
<defs>
<linearGradient id="paint0_linear_4_1194" x1="1.62926" y1="65.1851" x2="47.8054" y2="10.0944" gradientUnits="userSpaceOnUse">
<stop stop-color="#00F3B9"/>
<stop offset="1" stop-color="#2187FF"/>
</linearGradient>
<clipPath id="clip0_4_1194">
<rect width="26" height="32" fill="white" transform="translate(20 17.0132)"/>
</clipPath>
</defs>
</svg>
