<svg width="62" height="58" viewBox="0 0 62 58" fill="none" xmlns="http://www.w3.org/2000/svg">
<path d="M62 40.4671V51.9342C62 53.4548 61.3468 54.9132 60.1841 55.9885C59.0213 57.0637 57.4443 57.6678 55.8 57.6678H43.4V51.9342C43.4 50.4136 42.7468 48.9552 41.5841 47.88C40.4213 46.8047 38.8443 46.2006 37.2 46.2006C35.5557 46.2006 33.9787 46.8047 32.8159 47.88C31.6532 48.9552 31 50.4136 31 51.9342V57.6678H18.6C16.9557 57.6678 15.3787 57.0637 14.2159 55.9885C13.0532 54.9132 12.4 53.4548 12.4 51.9342V40.4671H6.2C4.55566 40.4671 2.97866 39.863 1.81594 38.7877C0.653212 37.7125 0 36.2541 0 34.7335C0 33.2128 0.653212 31.7545 1.81594 30.6792C2.97866 29.604 4.55566 28.9999 6.2 28.9999H12.4V17.5328C12.4 14.3793 15.19 11.7992 18.6 11.7992H31V6.06561C31 4.54497 31.6532 3.08661 32.8159 2.01136C33.9787 0.936103 35.5557 0.332031 37.2 0.332031C38.8443 0.332031 40.4213 0.936103 41.5841 2.01136C42.7468 3.08661 43.4 4.54497 43.4 6.06561V11.7992H55.8C57.4443 11.7992 59.0213 12.4033 60.1841 13.4785C61.3468 14.5538 62 16.0121 62 17.5328V28.9999H55.8C54.1557 28.9999 52.5787 29.604 51.4159 30.6792C50.2532 31.7545 49.6 33.2128 49.6 34.7335C49.6 36.2541 50.2532 37.7125 51.4159 38.7877C52.5787 39.863 54.1557 40.4671 55.8 40.4671H62Z" fill="#2091F9"/>
</svg>
