<svg width="50" height="50" viewBox="0 0 50 50" fill="none" xmlns="http://www.w3.org/2000/svg">
<rect width="50" height="50" rx="25" fill="#E77C40"/>
<path d="M35.7558 28.5544V32.8556C35.7558 33.426 35.5108 33.9731 35.0747 34.3764C34.6385 34.7797 34.047 35.0063 33.4302 35.0063H28.7791V32.8556C28.7791 32.2853 28.5341 31.7382 28.0979 31.3349C27.6618 30.9316 27.0703 30.705 26.4535 30.705C25.8367 30.705 25.2452 30.9316 24.8091 31.3349C24.3729 31.7382 24.1279 32.2853 24.1279 32.8556V35.0063H19.4767C18.86 35.0063 18.2684 34.7797 17.8323 34.3764C17.3962 33.9731 17.1512 33.426 17.1512 32.8556V28.5544H14.8256C14.2088 28.5544 13.6173 28.3278 13.1811 27.9245C12.745 27.5212 12.5 26.9741 12.5 26.4038C12.5 25.8334 12.745 25.2864 13.1811 24.883C13.6173 24.4797 14.2088 24.2531 14.8256 24.2531H17.1512V19.9519C17.1512 18.769 18.1977 17.8013 19.4767 17.8013H24.1279V15.6506C24.1279 15.0802 24.3729 14.5332 24.8091 14.1299C25.2452 13.7266 25.8367 13.5 26.4535 13.5C27.0703 13.5 27.6618 13.7266 28.0979 14.1299C28.5341 14.5332 28.7791 15.0802 28.7791 15.6506V17.8013H33.4302C34.047 17.8013 34.6385 18.0278 35.0747 18.4312C35.5108 18.8345 35.7558 19.3815 35.7558 19.9519V24.2531H33.4302C32.8134 24.2531 32.2219 24.4797 31.7858 24.883C31.3497 25.2864 31.1047 25.8334 31.1047 26.4038C31.1047 26.9741 31.3497 27.5212 31.7858 27.9245C32.2219 28.3278 32.8134 28.5544 33.4302 28.5544H35.7558Z" fill="white"/>
</svg>
