<svg width="50" height="50" viewBox="0 0 50 50" fill="none" xmlns="http://www.w3.org/2000/svg">
<rect width="50" height="50" rx="25" fill="#E77C40"/>
<path d="M20.4588 26.4403L23.5184 23.3808L16.8263 16.6995C16.3073 16.1805 15.41 16.3211 15.0857 16.9914C14.3181 18.6022 14.5992 20.5807 15.929 21.9213L20.4588 26.4403ZM27.7888 24.4835C29.4429 25.2511 31.7672 24.7105 33.4862 22.9916C35.5511 20.9266 35.9511 17.9644 34.3619 16.3751C32.7835 14.7967 29.8212 15.1859 27.7455 17.2508C26.0265 18.9698 25.486 21.2942 26.2536 22.9483L16.4587 32.7432C16.2566 32.9453 16.143 33.2195 16.143 33.5054C16.143 33.7912 16.2566 34.0654 16.4587 34.2675C16.6608 34.4697 16.935 34.5833 17.2209 34.5833C17.5068 34.5833 17.7809 34.4697 17.9831 34.2675L24.6752 27.5971L31.3564 34.2784C31.4565 34.3785 31.5753 34.4578 31.7061 34.512C31.8369 34.5662 31.9771 34.5941 32.1186 34.5941C32.2602 34.5941 32.4003 34.5662 32.5311 34.512C32.6619 34.4578 32.7807 34.3785 32.8808 34.2784C32.9809 34.1783 33.0603 34.0594 33.1144 33.9287C33.1686 33.7979 33.1965 33.6577 33.1965 33.5162C33.1965 33.3746 33.1686 33.2345 33.1144 33.1037C33.0603 32.9729 32.9809 32.8541 32.8808 32.754L26.1995 26.0727L27.7888 24.4835Z" fill="white"/>
</svg>
