<svg width="62" height="58" viewBox="0 0 62 58" fill="none" xmlns="http://www.w3.org/2000/svg">
<path d="M17.3794 33.3203L26.5558 24.1439L6.48437 4.10484C4.92794 2.54841 2.23661 2.96994 1.26385 4.98033C-1.03837 9.81175 -0.195306 15.7456 3.79304 19.7664L17.3794 33.3203ZM39.3639 27.4513C44.3251 29.7535 51.2966 28.1322 56.4522 22.9765C62.6455 16.7833 63.8453 7.89864 59.0787 3.13207C54.3446 -1.60207 45.4599 -0.434744 39.2342 5.75855C34.0786 10.9142 32.4573 17.8857 34.7595 22.8468L5.3819 52.2244C4.77561 52.8307 4.435 53.653 4.435 54.5105C4.435 55.3679 4.77561 56.1902 5.3819 56.7965C5.98818 57.4027 6.81049 57.7434 7.6679 57.7434C8.52532 57.7434 9.34762 57.4027 9.95391 56.7965L30.0254 36.7899L50.0644 56.8289C50.3646 57.1291 50.721 57.3672 51.1132 57.5297C51.5054 57.6922 51.9258 57.7758 52.3504 57.7758C52.7749 57.7758 53.1953 57.6922 53.5876 57.5297C53.9798 57.3672 54.3362 57.1291 54.6364 56.8289C54.9366 56.5287 55.1747 56.1723 55.3372 55.7801C55.4997 55.3878 55.5833 54.9674 55.5833 54.5429C55.5833 54.1183 55.4997 53.6979 55.3372 53.3057C55.1747 52.9135 54.9366 52.5571 54.6364 52.2569L34.5974 32.2178L39.3639 27.4513Z" fill="#2091F9"/>
</svg>
