<svg width="35" height="28" viewBox="0 0 35 28" fill="none" xmlns="http://www.w3.org/2000/svg">
<path d="M34.145 4.15819C32.9202 4.68654 31.5873 5.06678 30.2144 5.21488C31.6398 4.36807 32.7072 3.03026 33.2164 1.45244C31.8788 2.24811 30.4136 2.80605 28.8855 3.10151C28.2469 2.41877 27.4745 1.87487 26.6165 1.5037C25.7585 1.13253 24.8332 0.942043 23.8983 0.944108C20.1159 0.944108 17.0739 4.0101 17.0739 7.77254C17.0739 8.30088 17.1379 8.82923 17.242 9.33755C11.5783 9.04136 6.52705 6.33561 3.16887 2.19292C2.55697 3.23806 2.23632 4.42807 2.24026 5.63915C2.24026 8.00869 3.44505 10.098 5.28224 11.3268C4.19955 11.2842 3.14222 10.9866 2.19624 10.4583V10.5423C2.19624 13.8605 4.54176 16.6103 7.66779 17.2427C7.08084 17.3951 6.47704 17.4731 5.87062 17.4748C5.42633 17.4748 5.00606 17.4308 4.58178 17.3708C5.44634 20.0765 7.96398 22.0418 10.9619 22.1058C8.6164 23.943 5.67849 25.0237 2.48843 25.0237C1.91605 25.0237 1.38771 25.0037 0.839355 24.9397C3.86532 26.8809 7.45565 28.0017 11.3222 28.0017C23.8743 28.0017 30.7428 17.6029 30.7428 8.57706C30.7428 8.28087 30.7428 7.98468 30.7227 7.68848C32.0516 6.71585 33.2164 5.51107 34.145 4.15819Z" fill="#2091F9"/>
</svg>
